/* XPM */
static char *result[] = {
/* columns rows colors chars-per-pixel */
"32 32 108 2 ",
"   c #171324",
".  c #181424",
"X  c #1F1D33",
"o  c #211F36",
"O  c #242237",
"+  c #2A2231",
"@  c #25243A",
"#  c #28263C",
"$  c #2B293E",
"%  c #322937",
"&  c #2E2C40",
"*  c #2D304F",
"=  c #353145",
"-  c #3A3446",
";  c #3B3649",
":  c #323555",
">  c #34385B",
",  c #393C5C",
"<  c #373D62",
"1  c #383E63",
"2  c #453F55",
"3  c #3E4366",
"4  c #3D456D",
"5  c #3F4771",
"6  c #3F4872",
"7  c #464157",
"8  c #494358",
"9  c #564853",
"0  c #5C4C57",
"q  c #5E4E58",
"w  c #63525D",
"e  c #444664",
"r  c #484967",
"t  c #404568",
"y  c #474A6E",
"u  c #4C4D6C",
"i  c #564E63",
"p  c #4F506F",
"a  c #565066",
"s  c #5A5165",
"d  c #50506E",
"f  c #414A74",
"g  c #464F78",
"h  c #4D5173",
"j  c #47507A",
"k  c #4D557F",
"l  c #505375",
"z  c #5A5D7A",
"x  c #675661",
"c  c #685660",
"v  c #6C5A65",
"b  c #725F69",
"n  c #74616B",
"m  c #7C666C",
"M  c #7C6871",
"N  c #8B7276",
"B  c #92777A",
"V  c #4F5781",
"C  c #4F5881",
"Z  c #515983",
"A  c #5F6790",
"S  c #6C6E86",
"D  c #63678A",
"F  c #64698E",
"G  c #686D8D",
"H  c #707289",
"J  c #636A93",
"K  c #686D92",
"L  c #676E98",
"P  c #686F99",
"I  c #6B7096",
"U  c #6A719A",
"Y  c #71789F",
"T  c #767DA2",
"R  c #787EA3",
"E  c #9B7F81",
"W  c #7C83A6",
"Q  c #7E84A8",
"!  c #9C8083",
"~  c #A38689",
"^  c #AE8E8F",
"/  c #B59494",
"(  c #B79798",
")  c #BE9C9D",
"_  c #8187A7",
"`  c #8187A9",
"'  c #8489AB",
"]  c #898FAF",
"[  c #8A8FB1",
"{  c #8D92B2",
"}  c #9196B5",
"|  c #9398B7",
" . c #959AB8",
".. c #999EBB",
"X. c #9EA2BF",
"o. c #A0A4BF",
"O. c #CDA7A4",
"+. c #D0AAA6",
"@. c #D3ADAA",
"#. c #D7B0AD",
"$. c #DAB1AD",
"%. c #DCB5B1",
"&. c #E2B9B3",
"*. c #E8BDB7",
"=. c #E4BCB8",
"-. c #E9BEB9",
";. c #E9C0BC",
":. c #A2A6C2",
/* pixels */
";.;.;.;.;.;.;.%.N %   . . . . . . . . . . . + M %.;.;.;.;.;.;.;.",
";.-.;.-.-.=.#.) M - $ $ $ = $ = = $ = $ - $ $ m ( #.&.;.;.;.;.;.",
";.;.-.;.;.%.! v i d z S H H H H H H H H z z p i w ! #.;.;.&.;.;.",
";.-.;.-.%.) n = e G _ ..o.o.o.X.X.o.X.o.X.' I u $ v ( %.=.;.;.;.",
"-.;.;.%.~ b a y D ' | X.:.:.:.:.o.:.:.:.o.X.Q G p a v ! @.;.;.;.",
";.=.%.) n ; u K ` ..o.:.:.:.:.:.:.:.:.:.X.X.X.' I p ; w ( %.=.;.",
"-.@.~ m s r D ` ..:.:.:.:.:.:.:.:.:.:.:.:.:.o.X.' G p a b ! +.;.",
"%.) w = u K _ X.:.:.:.:.:.:.:.:.:.:.:.:.o.:.:.o.X.' I p * q / %.",
"N M s e D _ | o.:.:.:.:.:.:.:.:.:.:.:.:.:.:.:.:.X.X.Q G r i n N ",
"% - u F Q ..X.:.:.:.:.:.:.:.:.:.:.:.:.:.:.:.:.:.X.X.X.' G l ; % ",
"  @ u U [ X.:.:.:.:.:.:.:.:.:.:.:.:.:.:.:.:.:.:.X.:.X.{ W l $   ",
". # u Y [ X.:.:.:.:.:.:.:.:.:.:.:.:.:.:.:.:.:.:.o.:.:.} U l $   ",
". O t J R { ..:.:.:.:.:.:.:.:.:.:.:.:.:.:.:.X.:.X.X.} W A y @   ",
"  o > V J T [ X.:.:.:.:.:.:.:.:.:.:.:.:.:.:.:.:.X.{ W L C 3 o   ",
"  X : f V F T { X.X.:.:.:.:.:.:.:.:.:.:.:.:.X.X.} W J Z 6 > o   ",
"  X : 6 g k F T { X.:.:.:.:.:.:.:.:.:.:.:.:.X.] W A Z j 6 > o   ",
"  X : 6 6 f C A T { X.:.:.:.:.:.:.:.:.:.:.X.} W A C j 6 6 < X   ",
"  X : 6 6 6 g V J T ] X.:.:.o.o.:.:.:.:.X.] W A C j 6 6 6 < o   ",
"  X : 6 6 6 6 f C J T { ........ .X.o.X.} W L Z 6 6 6 6 6 > o   ",
"  X : 6 6 6 f 6 g k J T Q W W W W Q Q Q W J C j 6 6 6 6 6 > o   ",
"  X > 5 6 6 6 6 5 f Z J P P P P U U U L J Z V 6 6 6 6 6 6 > o   ",
"  X : 5 6 6 6 6 f f C J P L P P L L L U J Z 6 6 6 6 6 6 6 > o   ",
"o & > 1 6 6 6 f 6 f V J P P P P U L L L J Z 6 6 6 6 6 4 4 > $ + ",
"N b 2 : < 6 6 6 f f V J P L P P U L L U L C 6 6 6 6 4 3 : 2 v m ",
"@./ w % : t f f f f C J P P P P L L L L L C 6 6 6 6 6 : $ 9 ^ $.",
"*.+.B c 8 : < 5 6 f C J P P P P U U L L A C g 6 6 4 : 7 w B O.;.",
"*.&.@./ v & : 1 5 6 C J P P P L L L L L L C 6 6 4 : & q ^ +.%.;.",
"*.*.*.$.E x 2 , < 5 C A P P L L L L L L L C 4 3 > 2 s B +.;.;.;.",
"*.*.*.*.+./ b # * 3 k A L L L L L L L L F C 5 : + c ^ +.&.*.*.;.",
"*.*.-.*.-.$.E 0 7 , 3 h k h h j l l l l p e , 7 9 B +.;.;.*.;.*.",
"*.*.*.*.*.&.+./ n = O # $ $ & & @ & & & % + % q ^ O.$.;.&.;.&.;.",
"*.*.*.*.*.*.*.&.N %                     . . + N $.;.;.*.;.*.*.;."
};
