/* XPM */
static char *result[] = {
/* columns rows colors chars-per-pixel */
"32 32 81 1 ",
"  c #4F2E1A",
". c #543016",
"X c #55321C",
"o c #5A361C",
"O c #5C391F",
"+ c #563722",
"@ c #5B3721",
"# c #573823",
"$ c #5B3A23",
"% c #5C3E2A",
"& c #603E25",
"* c #5F4027",
"= c #5E402B",
"- c #5D4733",
"; c #634226",
": c #63442B",
"> c #694729",
", c #67482D",
"< c #6A4B2E",
"1 c #644731",
"2 c #644A34",
"3 c #6C4E31",
"4 c #664D39",
"5 c #694F39",
"6 c #704F31",
"7 c #6E5134",
"8 c #66513E",
"9 c #6B523B",
"0 c #715436",
"q c #735639",
"w c #78543D",
"e c #765A3A",
"r c #795D3E",
"t c #7C613F",
"y c #675441",
"u c #6A5542",
"i c #6C5945",
"p c #6D5C49",
"a c #7B5544",
"s c #725A43",
"d c #7C5C43",
"f c #735E49",
"g c #7E5A49",
"h c #7D6241",
"j c #74624D",
"k c #7A624B",
"l c #796752",
"z c #7C6B55",
"x c #7C6E5B",
"c c #7F715E",
"v c #825D4A",
"b c #806646",
"n c #87654E",
"m c #866C4C",
"M c #896D4E",
"N c #8B6651",
"B c #8F6C57",
"V c #8B7251",
"C c #937B5B",
"Z c #817462",
"A c #877B69",
"S c #897C6B",
"D c #9C7A64",
"F c #A17D69",
"G c #A68170",
"H c #AA8575",
"J c #B28B7F",
"K c #BB9487",
"L c #BC9589",
"P c #C0988C",
"I c #D6ACA4",
"U c #D8ADA5",
"Y c #D7AFA8",
"T c #D9B0AA",
"R c #DFB6B1",
"E c #E2B9B3",
"W c #E8BDB7",
"Q c #E6BEB9",
"! c #E9BFB9",
"~ c #EBC1BC",
"^ c #EDC4C0",
/* pixels */
"~~Q~QQ~Q~EPPFee6>w0MLLU~!~Q~~QQ^",
"~Q^Q~~~TPDMr0VVt6MMt;qNHIQ~~Q^~Q",
"~^Q^QQIBwMCM6Mmt6mMe6br00KQQ~~~Q",
"~QQQQIDl0mMb6re0>tte>ebq3aKQQQQ^",
"~Q~~QGhM<rbr3hhq6rte6tt0eqvRQ^Q~",
"~~Q~Ynhr<hbr7thr6tte0ttqqtqJ^Q~Q",
"QQQ~Gdhq7hht7thq6tte0ttqetrvRQQQ",
"QQ~~Brre0hbt7rrr6tbr0tteerk5Y^Q~",
"~!!~N3q00rwq0dtr0bhe7qtqqee,U~!!",
"Q~!~n,900skk7htq0hteql99979%U~!!",
"!!!~n9kkzzzmqqhe0ht0lzljkjj:U~!!",
"~~!~k$:>11i9<tse0bhq>s,::==OU~~!",
"!!W~vO;;&;;>0dtq0bhr>;:;>;;OU~WW",
"!!~~v6e03re37rtq0htr7qtq0e0;U~W~",
"!!!~v6003rr67rrq0htq0ttq6q0>U~~W",
"~!!~v6e00ee00ereqhtrqte0006>U~W~",
"W~~~b<qq7eee7e0<<eheqte0707:Y~~~",
"~~W~v<q07ee0707jhq0eeee0707:I~W~",
"W~~~v<q77eq0777f9i7qqee7377*I~~W",
"~W~~g<q77eq07729,8>qqee7<77*I~W~",
"W~W~v>77707777**=*<700q7<33&I~~~",
"~W~~g*3273qi70<*$,q77s7222:$I~W~",
"WWW~g8jjklzz07q7<q03kllfffe:I~W~",
"W~~~d=1248i8*007<q0<1i4211>OI~~W",
"W~W~d.ooo$&$<0q3<773&$$@OOooI!!!",
"WWW~v>66;03<>093:q73<7q3>3,$I!WW",
"WWW~g;>>;,3,*,<;O<,>>73,*:;+U!W!",
"WWW~g13098488781%9994954422%U!!W",
"W!W~vjxxcxccZZAl4SZZcxxcxxz4U!!W",
"!WW~g-uyuypipppy=ppfppuuy5y%I!W!",
"W!W~g-yyyyypiipy=ppipuuyy54%U!W!",
"!WQ!a +++++#++## #%##+++++X.U!W!"
};
