/* XPM */
static char *result[] = {
/* columns rows colors chars-per-pixel */
"32 32 83 1 ",
"  c #54331D",
". c #58351D",
"X c #563720",
"o c #563B27",
"O c #5B3B24",
"+ c #5C3E2A",
"@ c #603F26",
"# c #5F412B",
"$ c #5D4433",
"% c #634226",
"& c #63442B",
"* c #674A2D",
"= c #6B4A2E",
"- c #644730",
"; c #654933",
": c #6B4D33",
"> c #644B3A",
", c #6B4F3C",
"< c #6F5235",
"1 c #66513E",
"2 c #6C513B",
"3 c #715235",
"4 c #72563B",
"5 c #75593C",
"6 c #7A5C3E",
"7 c #6A4F41",
"8 c #665240",
"9 c #6C5544",
"0 c #6E5944",
"q c #6D5A49",
"w c #725545",
"e c #745A44",
"r c #795E42",
"t c #75574A",
"y c #74594A",
"u c #7C5E53",
"i c #7D6244",
"p c #7E644C",
"a c #7F6050",
"s c #816646",
"d c #826847",
"f c #81674A",
"g c #846B4C",
"h c #836554",
"j c #866C52",
"k c #8A6F55",
"l c #8D7456",
"z c #8E735E",
"x c #907857",
"c c #927A5A",
"v c #8C6D62",
"b c #8F7264",
"n c #96766D",
"m c #9A7669",
"M c #9E7B6E",
"N c #9E7C73",
"B c #A27F74",
"V c #A28074",
"C c #A5847A",
"Z c #A8867B",
"A c #AC897F",
"S c #AD8A82",
"D c #B48F88",
"F c #B59189",
"G c #B9948C",
"H c #BE9992",
"J c #C29D97",
"K c #C39F99",
"L c #C5A19B",
"P c #C9A39D",
"I c #CEA7A1",
"U c #CEA8A2",
"Y c #D1ABA5",
"T c #D4AEA9",
"R c #DCB3AE",
"E c #DFB7B2",
"W c #E0B6B0",
"Q c #E4BBB6",
"! c #E8BDB7",
"~ c #E6BDB9",
"^ c #E9BEB9",
"/ c #EAC1BC",
"( c #F0C4BE",
/* pixels */
"////~/~ELLR///~//~////UKLE//////",
"/^////ESpyD/~////////~CfpFE////~",
"////~/Iad4S/~/////E//EVskbT/~~//",
"~//~/~Fpj4S///~//////QVsxjK//~/~",
"////~Enpg2S/!^/^~/~/~~VsVkC~~/~/",
"/~/Q/Tbci:S//////~///ENillb~/~//",
"Q/Q//Ybxi:S/!^!^~~~~/QVrllbE~/~~",
"/////Fklr;A/!^^^////~QNriVjH////",
"///Q/Zjg3*S/!/^^/!///!V6iVpH(///",
"E/Q//Zjg<*A!!/^/!/!!/WV55ViG(//Q",
"/!///Zi5%%A/!^^^(!/!!WM35i6F(W//",
"!//Q/Zee#OA/^^/^/!!/!!M=5i0F(///",
"/!!/!V65#&A^^!^/!/!!/WV36iiJ(W//",
"!/!!(V=%&;S^^^^^/!///Qm563*A(/!/",
"//!//Z35=%NQ!^^//!!!/Rx5ii5A(!/!",
"/!!!!V66*OtE^^^^!//!/Li<ig6A(!!/",
"!/!!/Z65@ wW^^^^//!!^P6=6s3D(^^^",
"//!/!Z54@@hQ^^^^/!(!!If=ss:J(^^^",
"!/!!!C54&@Z^^^^^/!!!!Wm=5s:D(^^^",
"!/!//C44=@A^^^^^!!(!!!m=3s:D(^^^",
"/!!/^Z43@@S!^!^^!(!!!Wm%:r:D(^^^",
"!/!!^B,=@OS^^^^^!!(!/!m%,3-D(^^^",
"/!!/^C,,OOB!^!^^!!!!!Wx%;2-D^^^^",
"!!/!^B99O tW^^^^(!/!!P6.%0,J(^^^",
"/!!!!M%.XXwR!^^^!^!^^K2O@@+D/!^^",
"!!!!!V==XouR!!!!!!!!!Py$@3-D(!!!",
"!!!!!V3=X+B!!^^^^^^!!Rv>*3-F(!!^",
"!(!!!V&%+>G!!!!^!^^!!QC,>&+D/!!^",
"^!!!!C9q$uE~!!^^^^^!!^Iwyq>D(!!!",
"!^!!!C99+nQ~!^!!^^^!!^Rvq9>D(!^!",
"^^!!~B11+G!!^!!^^^^^^Q~S$8;D(!^^",
"^!!!~S97zR^!^^^!^!^^!~~Uv9,J/!^!"
};
