/* XPM */
static char *result[] = {
/* columns rows colors chars-per-pixel */
"32 32 68 1 ",
"  c #2D1B12",
". c #362216",
"X c #34241A",
"o c #3A2619",
"O c #3C2A1D",
"+ c #3D2E22",
"@ c #3F3124",
"# c #413226",
"$ c #41352B",
"% c #5B4331",
"& c #694F3B",
"* c #6B513E",
"= c #6E5544",
"- c #715947",
"; c #735B49",
": c #706256",
"> c #7B6251",
", c #7F6957",
"< c #74695C",
"1 c #7A7465",
"2 c #7C7668",
"3 c #7E7D6F",
"4 c #7F7E70",
"5 c #806957",
"6 c #84715E",
"7 c #867562",
"8 c #8C7966",
"9 c #817769",
"0 c #837A6D",
"q c #8D7C69",
"w c #817F72",
"e c #848174",
"r c #8C8275",
"t c #868479",
"y c #89867B",
"u c #8C8B7E",
"i c #958C7F",
"p c #8E8B80",
"a c #918F82",
"s c #998F83",
"d c #929184",
"f c #9B9185",
"g c #97958A",
"h c #99978B",
"j c #9B9A8E",
"k c #9E9C91",
"l c #A39E8E",
"z c #A29E92",
"x c #A5A08F",
"c c #A5A193",
"v c #AAA294",
"b c #A5A399",
"n c #AEAA9C",
"m c #B0AA97",
"M c #B2AC9B",
"N c #B5B09F",
"B c #AFACA1",
"V c #B3AFA1",
"C c #B5B0A2",
"Z c #B9B4A6",
"A c #B6B3AA",
"S c #BBB6A9",
"D c #BCB8AB",
"F c #BCBAB0",
"G c #C1BEB3",
"H c #C3C1B6",
"J c #C4C2B8",
"K c None",
/* pixels */
"$q77777666656666r88888888q888q:K",
",nclllllllllllixmmmmmmmMmMmmMMv#",
",BllxlxllllljlhxmmmmmmnMmMMMMMl#",
",BlllxxllxxjxxxxNMmmMMMnMMmMMNvO",
",BxxxlxxzxxxxllcMMmNMMMNMMMMMCv+",
",ncxxxclxxzxllxvMNNNNNMMNNMMMCv+",
">BvcxccccxccclccNNNNNNNNNNNNMNvO",
">CccvvcvvvvccccvNNNNNMCVNVNNMGvO",
">FCCNCNCNCNCMCCVvvvvvvvvlzlzzvf#",
">FZZZZCZCZZCZZCVzzzzzzzzzlzzlzsO",
">HZZZCZZZZZZZZZCzzzllzzzlzlzlzfo",
">HZZZSSZSSZZZZZCzvvzzzzzzzzllzs#",
">HSZSSZSDZZSSZZCzvzzzzzzzzzzzzfo",
">HDDSDDSDDSSDDZAzzzzzzzvzzzzlzfo",
">JDDDDDDDDSZDSDCzzvzvzzzzzzzzzfo",
">DAAAAAASAAAAVABABBCBBVBBVBBABl.",
":jypyppppappuaddzzbzkbkbkzkkbkkX",
":gpppppppuppuuudzzbzkbbkkbbkkBh.",
"=dpyppupupuuuuudzkkzbkkkkbkbzzf.",
":dtpytupuuuuuuuukkkkkkkkkkkkzzf.",
"=dtptyyytutuutuukkkjkkkjkjkkzzfX",
"-ptttttytyttuutujjjjjjkkkkjkkksX",
"=pwtttttttttuuuuggjhhjjjjjkjjkp.",
"-dpppauaupppuuuuppppppppppaadgq.",
"-kdddgddhddihhjuwtwttyttyttttt4X",
"-kdadddddddhhuujttwtwwwtttttty0X",
"-kaddddddddiuhuuwwwwwwww4twtwt0X",
"=jaaadaddiuiuiuuwwwwwwwwwwtwtt9X",
"&liiaaaaiiiippapw4w4444wwwwwwt9X",
"&huupuuuuuuuiiay44443444w444ww9.",
"%ueeeeeereeeeeww11111112212122: ",
"K@@@@@@@@@@###+++++++++++++++++K"
};
