/* XPM */
static char *result[] = {
/* columns rows colors chars-per-pixel */
"32 32 181 2 ",
"   c #1D1D31",
".  c #211C31",
"X  c #1D233F",
"o  c #25263B",
"O  c #292538",
"+  c #29293F",
"@  c #34293A",
"#  c #3B313F",
"$  c #442C3C",
"%  c #46303D",
"&  c #1D2440",
"*  c #212642",
"=  c #2A2C44",
"-  c #352C40",
";  c #2E324D",
":  c #363244",
">  c #3A3545",
",  c #38394C",
"<  c #2D3457",
"1  c #3E3D54",
"2  c #3C3E5A",
"3  c #423342",
"4  c #463B46",
"5  c #433C4C",
"6  c #523743",
"7  c #5D3844",
"8  c #533E4A",
"9  c #413C52",
"0  c #673C49",
"q  c #6D3C48",
"w  c #3B4165",
"e  c #3A426A",
"r  c #3F4872",
"t  c #36667A",
"y  c #4C424E",
"u  c #5E414B",
"i  c #594A4F",
"p  c #444257",
"a  c #4C4453",
"s  c #524653",
"d  c #544955",
"f  c #5C4C53",
"g  c #554B5A",
"h  c #65474D",
"j  c #75424D",
"k  c #6B4F56",
"l  c #7C4952",
"z  c #6B5456",
"x  c #64535C",
"c  c #6B545A",
"v  c #745056",
"b  c #7E525D",
"n  c #715C5D",
"m  c #434566",
"M  c #494965",
"N  c #43496D",
"B  c #4C4C6A",
"V  c #564E62",
"C  c #4F5269",
"Z  c #585268",
"A  c #414A73",
"S  c #454E78",
"D  c #4A517A",
"F  c #575774",
"G  c #5A5A7A",
"H  c #645662",
"J  c #645967",
"K  c #6C5B64",
"L  c #745E63",
"P  c #715C68",
"I  c #6D5F77",
"U  c #476779",
"Y  c #5F6777",
"T  c #766061",
"R  c #786365",
"E  c #74626C",
"W  c #6D6674",
"Q  c #746573",
"!  c #7B6973",
"~  c #7D6D7C",
"^  c #844954",
"/  c #895253",
"(  c #8C5759",
")  c #97595A",
"_  c #9A625E",
"`  c #8D6D67",
"'  c #9A646D",
"]  c #8D706D",
"[  c #91746E",
"{  c #9C736B",
"}  c #886573",
"|  c #836E75",
" . c #8A7376",
".. c #84727B",
"X. c #8E757A",
"o. c #8F787E",
"O. c #9B7A71",
"+. c #917478",
"@. c #9C7D7A",
"#. c #A36966",
"$. c #A36469",
"%. c #AB796E",
"&. c #B4716A",
"*. c #BD776D",
"=. c #B47D77",
"-. c #CC7E6F",
";. c #C77D71",
":. c #A78378",
">. c #B88576",
",. c #CA8374",
"<. c #D18A78",
"1. c #CF917F",
"2. c #4E5680",
"3. c #535B84",
"4. c #5D5E80",
"5. c #5C6684",
"6. c #5B628B",
"7. c #617E94",
"8. c #8C7987",
"9. c #957D82",
"0. c #AB7F87",
"q. c #6799AC",
"w. c #6AAABC",
"e. c #9B8184",
"r. c #9D8488",
"t. c #8D8590",
"y. c #998390",
"u. c #A18487",
"i. c #A6888D",
"p. c #AA8D8E",
"a. c #B18D84",
"s. c #BC9281",
"d. c #AE9193",
"f. c #B79895",
"g. c #B9999A",
"h. c #9F93A2",
"j. c #ACA0A5",
"k. c #B3A5AA",
"l. c #AFA8B3",
"z. c #B0AFBB",
"x. c #C58B85",
"c. c #C19583",
"v. c #CF9D87",
"b. c #C59A8A",
"n. c #CE9E89",
"m. c #D39480",
"M. c #D79883",
"N. c #C49C92",
"B. c #C19E9D",
"V. c #D6A58E",
"C. c #DDA28C",
"Z. c #C3A09F",
"A. c #D9A791",
"S. c #D9A996",
"D. c #E2A68E",
"F. c #EDAC91",
"G. c #F0AF93",
"H. c #ECB296",
"J. c #EEB699",
"K. c #F4B396",
"L. c #FBBF9E",
"P. c #C3A3A1",
"I. c #CAA6A4",
"U. c #CEAAA8",
"Y. c #D2ACA9",
"T. c #D7B0AC",
"R. c #DAB2AE",
"E. c #C5ACB2",
"W. c #DCB5B1",
"Q. c #E0B7B2",
"!. c #E5BBB5",
"~. c #E8BDB7",
"^. c #E4BCB9",
"/. c #E9BEB9",
"(. c #FDC3A1",
"). c #E9C0BC",
"_. c #BCC8D3",
"`. c #D6CCD3",
"'. c #D9CFD5",
"]. c #C2D3DE",
"[. c #E0E0E9",
/* pixels */
").).).).).).).).).).).).).).).).).).).).).).).).).).).).).).).).",
").).).).).).).).^.).).).).).).).).).).).).).).).).).).).).).).).",
").).).).).)./.).)./.^.^.W.^.^.^.^.^.^.^.).).).).).).).).`.).).).",
").).).).).).).).).).g.d ; , : : : : : > 8.W.).).).).).).~.).).).",
")././.).).).).).^.g..., & & & & & & & & Z d.W.).).)./.).~./././.",
").).).).)./.).W.U.Q 2 w e e e e e e e e 2 g d.W.^.).).)././.).).",
"/./././.).^.).g.E Z N r r r r r r r r r A B J r.W.)./.)./././.).",
"/././././.^.^.y.= N 6.S r r r r r r r r 3.3.; K W.)././././././.",
"/././.)./.~.~.e.+ N 6.S r r r r A A A A 3.3.; H R./././././.)./.",
"/.).).^././.~.@.+ w 3.2.D r r r r A A 2.3.D = H W./././././.)./.",
"/.).)./.)./.!.e.+ < D 6.5.F G G G G 4.6.3.e * H W././././.)././.",
"/././.).).).!.e.o < S D 8.b.Z.N.N.N.i.4.S e * H W././././././.).",
")./.(././.W.g.X.f M r w ! b.J.(.L.C.@.B e N g E a.Y.~.~.).)././.",
")./.).~./.I.H n b.~ m 1 5 x n.(.J. .a 9 p F a.O.y u.~.~./././.).",
"~.~.).~./.P.s c S. .V  .x y s.(.J.n 5 ] J Z b.:.@ 9.~.~./././.).",
").).).~./.I.P T >.E K S.` 4 >.H.D.k f V.@.g :.O.d p.~.~.).).).~.",
").~.).~.).!.P.X.a 2 Q S.] 3 _ -.*.u i A.u.m 9 L g.R.~./././././.",
").).).)./.).!.e.o < I x.=.` ;.m.<.{ { 1.+.e * H W./././././././.",
"~.).).~./.!.Y.@.5 M I $.,.C.G.G.K.D.1.&.} F 9 K B.Q././././././.",
"L.).~.~./.U.| R a.k.h.b ( &.;.-.,.*._ l 8.l.f.[ H d.~./././.)./.",
"/./././.I.r.K ` C.P.t.i q ) =.x.x.$.l 7 Q j.S.>.k  .g.Q./.~.).~.",
"/.)././.o.f :.M.*.z > 6 q ' E.'.`.0.^ 7 3 8 #.<.v.L K U.)./.).).",
"/././.!.! 4 s.K.M.h @ 0 ^ ' E.[.`.i.^ j 3 3 %.F.H.n g I.(./.~./.",
"/././.~.9.x :.n.1.i @ 0 b  .z.]._.y.^ l 3 - { n.c.R E Y./.~.)./.",
"/././.~.Y.a.c 5 4 O   @ p 5.q.w.w.7.C @ . X # 4 y +.Z.!.).~.~.~.",
"~.~.~.~./.Y.o.E H : O % c W U t t Y P h @ O d P ! g.!.~.~.~.~.~.",
"/./.~.~./.!.R.R.I.E 8 / ) ( y , 5 v ) ) h i p.T.T.Q././.).~.).~.",
"~././.~././.!./.!.B.X.6 $ u X.p.u.c % % n p.T.~./.~./.~.~.~.).~.",
"~././.~.~.~.~.~.~.~.f.a - d g./.R.! > > X.Q./.~.~.~././.~.~.).~.",
"/./.~.~././.~.~.~.~.~.!.!.~.~.~.~.~.!.Q.!.~././.~.~././.).~.).~.",
"~./.~././.~./.~.~.~.~./././.~./.~./.~././.~.~.~././././.L.).~.~.",
"/.~./.~././.~./.~./././././././.~./.~./.~././././.~./././.~.~.)."
};
